<svg xmlns="http://www.w3.org/2000/svg" xmlns:xlink="http://www.w3.org/1999/xlink" viewBox="0 0 423.06 681.47"><defs><style>.a{fill:none;}.b{fill:#333;}.c{fill:#740000;}.d{opacity:0.37;}.e{clip-path:url(#a);}.f{fill:red;opacity:0.5;}</style><clipPath id="a" transform="translate(0 0)"><path class="a" d="M402.33,61.8,422.83,0,380.44,49.17,185.51,386.8l-39.83-23-.1.6A268.53,268.53,0,0,1,90.06,487.21L34.9,555.68,3.36,610.3a25.07,25.07,0,0,0,9.18,34.24l58.12,33.56a25.07,25.07,0,0,0,34.24-9.18l31.54-54.62,31.81-82.15a268.54,268.54,0,0,1,79-109.73h0l-39.83-23Z"/></clipPath></defs><title>red screwdriver</title><polyline class="b" points="207.39 399.43 402.32 61.8 422.83 0 380.44 49.17 185.51 386.8"/><path class="c" d="M247.22,422.43,145.68,363.8l-.1.6A268.53,268.53,0,0,1,90.06,487.21L34.9,555.68,3.36,610.3a25.07,25.07,0,0,0,9.18,34.24l58.12,33.56a25.07,25.07,0,0,0,34.24-9.18l31.54-54.62,31.81-82.15a268.54,268.54,0,0,1,79-109.73Z" transform="translate(0 0)"/><path class="d" d="M103.69,429.26h0a12.53,12.53,0,0,1,12.53,12.53V677.5a0,0,0,0,1,0,0H91.16a0,0,0,0,1,0,0V441.79a12.53,12.53,0,0,1,12.53-12.53Z" transform="translate(290.58 22.29) rotate(30)"/><g class="e"><rect class="f" x="0.06" y="0.46" width="423" height="681"/></g></svg>